<?xml version="1.0" encoding="utf-8"?>
<!-- Generator: Adobe Illustrator 22.0.1, SVG Export Plug-In . SVG Version: 6.00 Build 0)  -->
<svg version="1.1" id="Layer_1" xmlns="http://www.w3.org/2000/svg" xmlns:xlink="http://www.w3.org/1999/xlink" x="0px" y="0px"
	 viewBox="0 0 105 75" style="enable-background:new 0 0 105 75;" xml:space="preserve">
<style type="text/css">
	.st0{fill:#ffffff;}
</style>
<path id="XMLID_2335_" class="st0" d="M97.8,72.1C97.1,73,96,75.2,94.7,75c-1.8-0.2-1.1-2-0.7-3.1c0.8-2.2,3.4-5,3.4-7.3
	c-17,6.9-35.4,7.6-52.8,1.7C27.2,60.4,9.8,48.3,3,30.5c-3.3-8.7-4.3-18.2-0.6-26.9c0.3-0.8,1.7-4.5,2.9-3.4c0.6,0.6-1.2,5.4-1.4,6.4
	c-1,4.8-1.1,9.4-0.3,14.2c2.9,16.3,16,29.4,30.2,36.8c9.4,4.9,20.1,7.8,30.7,8.5c5.5,0.4,11.1,0.2,16.5-0.8c4.6-0.8,12.1-2,15.7-5.1
	c-3.6-2.1-9.4-0.7-13.3-2.2c-2.1-0.8-3.4-3.1-0.7-4.1c2.2-0.8,6,0.6,8.2,1c2.4,0.4,4.9,0.9,7.3,1.6c1.8,0.5,5.7,0.8,6.7,2.5
	C106.4,61.9,99.5,69.8,97.8,72.1C97.1,73,98.5,71.1,97.8,72.1z"/>
</svg>
